<?xml version="1.0" encoding="utf-8"?>
<!-- Generator: Adobe Illustrator 26.1.0, SVG Export Plug-In . SVG Version: 6.00 Build 0)  -->
<svg version="1.1" id="Слой_1" xmlns="http://www.w3.org/2000/svg" xmlns:xlink="http://www.w3.org/1999/xlink" x="0px" y="0px"
	 viewBox="0 0 125 25" style="enable-background:new 0 0 125 25;" xml:space="preserve">
<style type="text/css">
	.st0{fill:#FFFFFF;}
	.st1{fill:#F41240;}
</style>
<path class="st0" d="M13.9,6H0v15h3.9v-4.9h7.4l3.4,4.9H19l-3.7-4.9c1.2-0.2,2-0.6,2.5-1.3c0.5-0.7,0.8-1.8,0.8-3.2v-1.1
	c0-0.9-0.1-1.5-0.3-2c-0.2-0.5-0.4-1-0.8-1.4C17,6.7,16.6,6.4,16,6.2C15.5,6.1,14.8,6,13.9,6z M13.3,12.8H3.9V9.3h9.4
	c0.5,0,0.9,0.1,1.1,0.2c0.2,0.2,0.3,0.4,0.3,0.9v1.3c0,0.4-0.1,0.7-0.3,0.9C14.2,12.7,13.8,12.8,13.3,12.8z"/>
<path class="st0" d="M24.8,16.6V6H21v10.5c0,0.9,0.1,1.6,0.2,2.1c0.2,0.5,0.4,1,0.8,1.4c0.4,0.4,0.8,0.7,1.4,0.8
	c0.5,0.2,1.2,0.2,2.1,0.2h9c0.8,0,1.5-0.1,2-0.2c0.5-0.2,1-0.4,1.4-0.8c0.4-0.4,0.7-0.8,0.8-1.4c0.2-0.5,0.2-1.2,0.2-2.1V6h-3.8
	v10.6c0,0.4-0.1,0.7-0.3,0.9s-0.5,0.2-1.1,0.2h-7.8c-0.5,0-0.9-0.1-1.1-0.2S24.8,17,24.8,16.6z"/>
<path class="st0" d="M51.8,21V9.3H59V6H41v3.3h7.2V21H51.8z"/>
<path class="st0" d="M64.8,16.6V6H61v10.5c0,0.9,0.1,1.6,0.2,2.1c0.2,0.5,0.4,1,0.8,1.4c0.4,0.4,0.8,0.7,1.4,0.8
	c0.5,0.2,1.2,0.2,2.1,0.2h9c0.8,0,1.5-0.1,2-0.2c0.5-0.2,1-0.4,1.4-0.8c0.4-0.4,0.7-0.8,0.8-1.4c0.2-0.5,0.2-1.2,0.2-2.1V6h-3.8
	v10.6c0,0.4-0.1,0.7-0.3,0.9c-0.2,0.2-0.5,0.2-1.1,0.2h-7.8c-0.5,0-0.9-0.1-1.1-0.2C64.8,17.3,64.8,17,64.8,16.6z"/>
<path class="st0" d="M98.3,10.4v-0.3c0-1.4-0.4-2.4-1.1-3.1c-0.7-0.7-1.9-1-3.4-1H81v15h13.5c1.5,0,2.7-0.3,3.4-1
	c0.7-0.7,1.1-1.7,1.1-3.1v-0.3c0-1.4-0.4-2.4-1.1-3c-0.1-0.1-0.3-0.2-0.4-0.2c-0.1-0.1-0.3-0.2-0.6-0.2c0.5-0.3,0.8-0.6,1-1
	C98.1,11.8,98.3,11.1,98.3,10.4z M84.8,12V9.3h8.4c0.5,0,0.9,0.1,1.1,0.2c0.2,0.2,0.3,0.4,0.3,0.9v0.4c0,0.4-0.1,0.7-0.3,0.9
	c-0.2,0.2-0.5,0.2-1.1,0.2H84.8z M84.8,17.7V15h9.2c0.5,0,0.9,0.1,1.1,0.2c0.2,0.2,0.3,0.4,0.3,0.9v0.4c0,0.4-0.1,0.7-0.3,0.9
	c-0.2,0.2-0.5,0.2-1.1,0.2H84.8z"/>
<path class="st0" d="M104.8,9.3h12.5V6H101v15h17v-3.3h-13.2v-2.5h12.2l0.3-3.3h-12.5V9.3z"/>
<path class="st1" d="M121.7,5.3c1.4,0,2.6-1.2,2.6-2.6S123.1,0,121.7,0c-1.4,0-2.6,1.2-2.6,2.6S120.2,5.3,121.7,5.3z"/>
</svg>
